<?xml version="1.0" encoding="UTF-8" standalone="no"?>
<svg
   xmlns:dc="http://purl.org/dc/elements/1.1/"
   xmlns:cc="http://creativecommons.org/ns#"
   xmlns:rdf="http://www.w3.org/1999/02/22-rdf-syntax-ns#"
   xmlns:svg="http://www.w3.org/2000/svg"
   xmlns="http://www.w3.org/2000/svg"
   xmlns:sodipodi="http://sodipodi.sourceforge.net/DTD/sodipodi-0.dtd"
   xmlns:inkscape="http://www.inkscape.org/namespaces/inkscape"
   viewBox="0 0 302.1621 478.4253"
   height="478.42532"
   width="302.16211"
   xml:space="preserve"
   id="svg2"
   version="1.1"
   sodipodi:docname="norge-razam.svg"
   inkscape:version="1.0.1 (3bc2e813f5, 2020-09-07)"><sodipodi:namedview
     pagecolor="#ffffff"
     bordercolor="#666666"
     borderopacity="1"
     objecttolerance="10"
     gridtolerance="10"
     guidetolerance="10"
     inkscape:pageopacity="0"
     inkscape:pageshadow="2"
     inkscape:window-width="1261"
     inkscape:window-height="1040"
     id="namedview576"
     showgrid="false"
     inkscape:zoom="0.60468745"
     inkscape:cx="282.46934"
     inkscape:cy="305.10265"
     inkscape:window-x="26"
     inkscape:window-y="0"
     inkscape:window-maximized="0"
     inkscape:current-layer="g10" /><metadata
     id="metadata8"><rdf:RDF><cc:Work
         rdf:about=""><dc:format>image/svg+xml</dc:format><dc:type
           rdf:resource="http://purl.org/dc/dcmitype/StillImage" /></cc:Work></rdf:RDF></metadata><defs
     id="defs6"><clipPath
       id="clipPath20"
       clipPathUnits="userSpaceOnUse"><path
         id="path18"
         d="m 330.109,476.274 c 0,0 -11.444,-11.96 14.092,-22.941 v 0 c 25.538,-10.981 61.247,-37.288 61.247,-37.288 v 0 c 0,0 51.573,-13.222 56.398,-12.85 v 0 c 4.825,0.372 25.98,-2.222 37.704,16.634 v 0 c 11.726,18.857 -10.398,38.598 -10.398,38.598 v 0 c 0,0 -19.409,-9.823 -111.792,12.003 v 0 c -16.236,3.836 -28.161,6.453 -38.795,6.453 v 0 c -2.894,0 -5.692,-0.193 -8.456,-0.609" /></clipPath><linearGradient
       id="linearGradient34"
       spreadMethod="pad"
       gradientTransform="matrix(-170.82959,56.901184,-56.901184,-170.82959,500.16956,419.62527)"
       gradientUnits="userSpaceOnUse"
       y2="0"
       x2="1"
       y1="0"
       x1="0"><stop
         id="stop26"
         offset="0"
         style="stop-opacity:1;stop-color:#5a0a00" /><stop
         id="stop28"
         offset="0.5"
         style="stop-opacity:1;stop-color:#e30613" /><stop
         id="stop30"
         offset="0.80895687"
         style="stop-opacity:1;stop-color:#e30613" /><stop
         id="stop32"
         offset="1"
         style="stop-opacity:1;stop-color:#5a0a00" /></linearGradient><clipPath
       id="clipPath44"
       clipPathUnits="userSpaceOnUse"><path
         id="path42"
         d="m 330.109,476.274 c 0,0 -11.444,-11.96 14.092,-22.941 v 0 c 25.538,-10.981 61.247,-37.288 61.247,-37.288 v 0 c 0,0 51.573,-13.222 56.398,-12.85 v 0 c 4.825,0.372 25.98,-2.222 37.704,16.634 v 0 c 11.726,18.857 -10.398,38.598 -10.398,38.598 v 0 c 0,0 -19.419,-9.861 -111.792,12.003 v 0 c -16.147,3.822 -28.141,6.451 -38.812,6.451 v 0 c -2.892,0 -5.685,-0.193 -8.439,-0.607" /></clipPath><clipPath
       id="clipPath52"
       clipPathUnits="userSpaceOnUse"><path
         id="path50"
         d="M -32768,32767 H 32767 V -32768 H -32768 Z" /></clipPath><linearGradient
       id="linearGradient60"
       spreadMethod="pad"
       gradientTransform="matrix(-170.82959,56.901184,-56.901184,-170.82959,500.16956,419.62527)"
       gradientUnits="userSpaceOnUse"
       y2="0"
       x2="1"
       y1="0"
       x1="0"><stop
         id="stop54"
         offset="0"
         style="stop-opacity:1;stop-color:#ffffff" /><stop
         id="stop56"
         offset="0.47830184"
         style="stop-opacity:0;stop-color:#ffffff" /><stop
         id="stop58"
         offset="1"
         style="stop-opacity:0;stop-color:#ffffff" /></linearGradient><mask
       id="mask62"
       height="1"
       width="1"
       y="0"
       x="0"
       maskUnits="userSpaceOnUse"><g
         id="g72"><g
           id="g70"
           clip-path="url(#clipPath52)"><g
             id="g68"><g
               id="g66"><path
                 id="path64"
                 style="fill:url(#linearGradient60);stroke:none"
                 d="M -32768,32767 H 32767 V -32768 H -32768 Z" /></g></g></g></g></mask><linearGradient
       id="linearGradient84"
       spreadMethod="pad"
       gradientTransform="matrix(-170.82959,56.901184,-56.901184,-170.82959,500.16956,419.62527)"
       gradientUnits="userSpaceOnUse"
       y2="0"
       x2="1"
       y1="0"
       x1="0"><stop
         id="stop78"
         offset="0"
         style="stop-opacity:1;stop-color:#cb0b0f" /><stop
         id="stop80"
         offset="0.47830184"
         style="stop-opacity:1;stop-color:#721900" /><stop
         id="stop82"
         offset="1"
         style="stop-opacity:1;stop-color:#721900" /></linearGradient><clipPath
       id="clipPath94"
       clipPathUnits="userSpaceOnUse"><path
         id="path92"
         d="M 0,800 H 800 V 0 H 0 Z" /></clipPath><clipPath
       id="clipPath102"
       clipPathUnits="userSpaceOnUse"><path
         id="path100"
         d="M 352.601,449.373 H 502.977 V 403.188 H 352.601 Z" /></clipPath><clipPath
       id="clipPath106"
       clipPathUnits="userSpaceOnUse"><path
         id="path104"
         d="m 431.555,429.615 c 54.784,-13.796 53.148,-0.881 53.148,-0.881 0,0 6.242,9.866 12.201,20.478 4.975,-7.505 9.36,-18.585 2.647,-29.382 -11.725,-18.856 -32.88,-16.263 -37.705,-16.635 -4.825,-0.372 -56.398,12.849 -56.398,12.849 0,0 -28.548,21.026 -52.847,33.329 19.794,-4.159 47.782,-11.908 78.954,-19.758" /></clipPath><clipPath
       id="clipPath110"
       clipPathUnits="userSpaceOnUse"><path
         id="path108"
         d="M -32768,32767 H 32767 V -32768 H -32768 Z" /></clipPath><linearGradient
       id="linearGradient118"
       spreadMethod="pad"
       gradientTransform="matrix(-141.75075,47.215385,-47.215385,-141.75075,499.17529,416.6402)"
       gradientUnits="userSpaceOnUse"
       y2="0"
       x2="1"
       y1="0"
       x1="0"><stop
         id="stop112"
         offset="0"
         style="stop-opacity:0;stop-color:#ffffff" /><stop
         id="stop114"
         offset="0.29188899"
         style="stop-opacity:1;stop-color:#ffffff" /><stop
         id="stop116"
         offset="1"
         style="stop-opacity:1;stop-color:#ffffff" /></linearGradient><mask
       id="mask120"
       height="1"
       width="1"
       y="0"
       x="0"
       maskUnits="userSpaceOnUse"><g
         id="g130"><g
           id="g128"
           clip-path="url(#clipPath110)"><g
             id="g126"><g
               id="g124"><path
                 id="path122"
                 style="fill:url(#linearGradient118);stroke:none"
                 d="M -32768,32767 H 32767 V -32768 H -32768 Z" /></g></g></g></g></mask><linearGradient
       id="linearGradient138"
       spreadMethod="pad"
       gradientTransform="matrix(-141.75075,47.215385,-47.215385,-141.75075,499.17529,416.6402)"
       gradientUnits="userSpaceOnUse"
       y2="0"
       x2="1"
       y1="0"
       x1="0"><stop
         id="stop132"
         offset="0"
         style="stop-opacity:1;stop-color:#92278f" /><stop
         id="stop134"
         offset="0.29188899"
         style="stop-opacity:1;stop-color:#b20f0b" /><stop
         id="stop136"
         offset="1"
         style="stop-opacity:1;stop-color:#b20f0b" /></linearGradient><clipPath
       id="clipPath164"
       clipPathUnits="userSpaceOnUse"><path
         id="path162"
         d="m 380.767,513.335 c 94.451,-70.098 118.918,-110.913 80.096,-110.104 v 0 c 0,0 54.43,-13.385 62.882,38.724 v 0 c 4.981,30.707 -15.184,49.137 -40.377,69.969 v 0 c 0,0 -87.268,62.302 -146.271,116.902 v 0 c 0,0 -44.408,-50.123 43.67,-115.491" /></clipPath><linearGradient
       id="linearGradient176"
       spreadMethod="pad"
       gradientTransform="matrix(-227.66702,75.833015,-75.833015,-227.66702,534.31976,470.94907)"
       gradientUnits="userSpaceOnUse"
       y2="0"
       x2="1"
       y1="0"
       x1="0"><stop
         id="stop170"
         offset="0"
         style="stop-opacity:1;stop-color:#ffffff" /><stop
         id="stop172"
         offset="0.99505"
         style="stop-opacity:1;stop-color:#a1a0a0" /><stop
         id="stop174"
         offset="1"
         style="stop-opacity:1;stop-color:#a1a0a0" /></linearGradient><clipPath
       id="clipPath186"
       clipPathUnits="userSpaceOnUse"><path
         id="path184"
         d="m 358.139,271.098 c -0.55,-0.406 -0.12,-1.269 0.529,-1.057 v 0 c 8.736,2.85 22.707,9.027 34.001,15.289 v 0 c 34.371,19.059 7.87,58.528 -9.409,77.375 v 0 c 0,0 29.865,-51.046 -25.121,-91.607" /></clipPath><linearGradient
       id="linearGradient198"
       spreadMethod="pad"
       gradientTransform="matrix(30.277544,90.899704,-90.899704,30.277544,373.15695,265.08539)"
       gradientUnits="userSpaceOnUse"
       y2="0"
       x2="1"
       y1="0"
       x1="0"><stop
         id="stop192"
         offset="0"
         style="stop-opacity:1;stop-color:#da1c5c" /><stop
         id="stop194"
         offset="0.5"
         style="stop-opacity:1;stop-color:#9e1f63" /><stop
         id="stop196"
         offset="1"
         style="stop-opacity:1;stop-color:#9e1f63" /></linearGradient><clipPath
       id="clipPath208"
       clipPathUnits="userSpaceOnUse"><path
         id="path206"
         d="m 358.139,271.098 c -0.55,-0.406 -0.12,-1.269 0.529,-1.057 v 0 c 8.736,2.85 29.24,10.625 37.892,18.755 v 0 c 28.641,26.912 3.979,55.062 -13.3,73.909 v 0 c 0,0 29.865,-51.046 -25.121,-91.607" /></clipPath><linearGradient
       id="linearGradient220"
       spreadMethod="pad"
       gradientTransform="matrix(30.277544,90.899704,-90.899704,30.277544,372.69702,265.23859)"
       gradientUnits="userSpaceOnUse"
       y2="0"
       x2="1"
       y1="0"
       x1="0"><stop
         id="stop214"
         offset="0"
         style="stop-opacity:1;stop-color:#ffffff" /><stop
         id="stop216"
         offset="0.99505"
         style="stop-opacity:1;stop-color:#a1a0a0" /><stop
         id="stop218"
         offset="1"
         style="stop-opacity:1;stop-color:#a1a0a0" /></linearGradient><clipPath
       id="clipPath230"
       clipPathUnits="userSpaceOnUse"><path
         id="path228"
         d="m 297.967,449.612 c -3.253,-44.138 148.829,-86.316 94.702,-164.282 v 0 c 0,0 33.728,14.327 43.523,47.162 v 0 l 0.088,0.048 c 0,0 12.474,35.9 -18.86,70.98 v 0 c -44.167,49.447 -104.594,62.328 -84.995,73.057 v 0 c 0,0 -32.586,-3.018 -34.458,-26.965" /></clipPath><linearGradient
       id="linearGradient242"
       spreadMethod="pad"
       gradientTransform="matrix(-160.30621,53.395981,-53.395981,-160.30621,443.43182,354.01193)"
       gradientUnits="userSpaceOnUse"
       y2="0"
       x2="1"
       y1="0"
       x1="0"><stop
         id="stop236"
         offset="0"
         style="stop-opacity:1;stop-color:#dadada" /><stop
         id="stop238"
         offset="0.5"
         style="stop-opacity:1;stop-color:#c6c6c6" /><stop
         id="stop240"
         offset="1"
         style="stop-opacity:1;stop-color:#e5e5e5" /></linearGradient><clipPath
       id="clipPath252"
       clipPathUnits="userSpaceOnUse"><path
         id="path250"
         d="m 297.94,449.612 c 0.667,-45.871 148.83,-86.316 94.704,-164.282 v 0 c 0,0 33.726,14.327 43.523,47.162 v 0 l 0.087,0.048 c 0,0 12.473,35.9 -18.86,70.98 v 0 c -44.168,49.447 -104.595,62.328 -84.994,73.057 v 0 c 0,0 -33.551,-2.696 -34.46,-26.965" /></clipPath><clipPath
       id="clipPath260"
       clipPathUnits="userSpaceOnUse"><path
         id="path258"
         d="M -32768,32767 H 32767 V -32768 H -32768 Z" /></clipPath><linearGradient
       id="linearGradient272"
       spreadMethod="pad"
       gradientTransform="matrix(-160.52853,53.470032,-53.470032,-160.52853,443.40607,354.01193)"
       gradientUnits="userSpaceOnUse"
       y2="0"
       x2="1"
       y1="0"
       x1="0"><stop
         id="stop262"
         offset="0"
         style="stop-opacity:0;stop-color:#ffffff" /><stop
         id="stop264"
         offset="0.20990323"
         style="stop-opacity:1;stop-color:#ffffff" /><stop
         id="stop266"
         offset="0.5"
         style="stop-opacity:1;stop-color:#ffffff" /><stop
         id="stop268"
         offset="0.74067063"
         style="stop-opacity:1;stop-color:#ffffff" /><stop
         id="stop270"
         offset="1"
         style="stop-opacity:0;stop-color:#ffffff" /></linearGradient><mask
       id="mask274"
       height="1"
       width="1"
       y="0"
       x="0"
       maskUnits="userSpaceOnUse"><g
         id="g284"><g
           id="g282"
           clip-path="url(#clipPath260)"><g
             id="g280"><g
               id="g278"><path
                 id="path276"
                 style="fill:url(#linearGradient272);stroke:none"
                 d="M -32768,32767 H 32767 V -32768 H -32768 Z" /></g></g></g></g></mask><linearGradient
       id="linearGradient300"
       spreadMethod="pad"
       gradientTransform="matrix(-160.52853,53.470032,-53.470032,-160.52853,443.40607,354.01193)"
       gradientUnits="userSpaceOnUse"
       y2="0"
       x2="1"
       y1="0"
       x1="0"><stop
         id="stop290"
         offset="0"
         style="stop-opacity:1;stop-color:#e3e3e3" /><stop
         id="stop292"
         offset="0.20990323"
         style="stop-opacity:1;stop-color:#ffffff" /><stop
         id="stop294"
         offset="0.5"
         style="stop-opacity:1;stop-color:#ffffff" /><stop
         id="stop296"
         offset="0.74067063"
         style="stop-opacity:1;stop-color:#ffffff" /><stop
         id="stop298"
         offset="1"
         style="stop-opacity:1;stop-color:#e3e3e3" /></linearGradient><clipPath
       id="clipPath310"
       clipPathUnits="userSpaceOnUse"><path
         id="path308"
         d="M 430.905,519.643 C 511.261,462.3 523.279,417.625 496.16,405.097 v 0 c 12.348,4.616 24.032,14.948 27.585,36.858 v 0 c 4.981,30.707 -14.134,48.217 -40.377,69.969 v 0 c 0,0 -94.078,67.14 -146.27,116.902 v 0 c 0,0 -7.929,-36.586 93.807,-109.183 m 39.872,-117.786 c 10.385,-0.884 18.979,0.282 25.383,3.24 v 0 c -9.094,-3.4 -18.55,-3.699 -25.383,-3.24 m 0,0 c -3.145,0.268 -6.45,0.723 -9.914,1.374 v 0 c 0,0 3.96,-0.975 9.914,-1.374" /></clipPath><clipPath
       id="clipPath318"
       clipPathUnits="userSpaceOnUse"><path
         id="path316"
         d="M -32768,32767 H 32767 V -32768 H -32768 Z" /></clipPath><linearGradient
       id="linearGradient326"
       spreadMethod="pad"
       gradientTransform="matrix(-224.86162,74.898567,-74.898567,-224.86162,534.31976,470.94913)"
       gradientUnits="userSpaceOnUse"
       y2="0"
       x2="1"
       y1="0"
       x1="0"><stop
         id="stop320"
         offset="0"
         style="stop-opacity:0;stop-color:#ffffff" /><stop
         id="stop322"
         offset="0.68093451"
         style="stop-opacity:1;stop-color:#ffffff" /><stop
         id="stop324"
         offset="1"
         style="stop-opacity:1;stop-color:#ffffff" /></linearGradient><mask
       id="mask328"
       height="1"
       width="1"
       y="0"
       x="0"
       maskUnits="userSpaceOnUse"><g
         id="g338"><g
           id="g336"
           clip-path="url(#clipPath318)"><g
             id="g334"><g
               id="g332"><path
                 id="path330"
                 style="fill:url(#linearGradient326);stroke:none"
                 d="M -32768,32767 H 32767 V -32768 H -32768 Z" /></g></g></g></g></mask><linearGradient
       id="linearGradient350"
       spreadMethod="pad"
       gradientTransform="matrix(-224.86162,74.898567,-74.898567,-224.86162,534.31976,470.94913)"
       gradientUnits="userSpaceOnUse"
       y2="0"
       x2="1"
       y1="0"
       x1="0"><stop
         id="stop344"
         offset="0"
         style="stop-opacity:1;stop-color:#ffffff" /><stop
         id="stop346"
         offset="0.68093451"
         style="stop-opacity:1;stop-color:#dadada" /><stop
         id="stop348"
         offset="1"
         style="stop-opacity:1;stop-color:#dadada" /></linearGradient><clipPath
       id="clipPath360"
       clipPathUnits="userSpaceOnUse"><path
         id="path358"
         d="M 0,800 H 800 V 0 H 0 Z" /></clipPath><clipPath
       id="clipPath368"
       clipPathUnits="userSpaceOnUse"><path
         id="path366"
         d="M 325.902,628.827 H 509.224 V 401.691 H 325.902 Z" /></clipPath><clipPath
       id="clipPath372"
       clipPathUnits="userSpaceOnUse"><path
         id="path370"
         d="m 337.097,628.827 h 0.001 c -0.001,-0.002 -7.926,-36.588 93.806,-109.184 80.373,-57.354 92.375,-102.035 65.237,-114.552 -8.902,-3.322 -18.141,-3.677 -24.932,-3.26 -3.274,0.262 -6.721,0.719 -10.345,1.4 38.822,-0.809 14.354,40.007 -80.097,110.104 -88.078,65.368 -43.67,115.492 -43.67,115.492" /></clipPath><clipPath
       id="clipPath376"
       clipPathUnits="userSpaceOnUse"><path
         id="path374"
         d="M -32768,32767 H 32767 V -32768 H -32768 Z" /></clipPath><linearGradient
       id="linearGradient388"
       spreadMethod="pad"
       gradientTransform="matrix(-50.514767,246.57516,-246.57516,-50.514767,441.28,393.24634)"
       gradientUnits="userSpaceOnUse"
       y2="0"
       x2="1"
       y1="0"
       x1="0"><stop
         id="stop378"
         offset="0"
         style="stop-opacity:0;stop-color:#ffffff" /><stop
         id="stop380"
         offset="0.32349269"
         style="stop-opacity:1;stop-color:#ffffff" /><stop
         id="stop382"
         offset="0.5"
         style="stop-opacity:1;stop-color:#ffffff" /><stop
         id="stop384"
         offset="0.80895687"
         style="stop-opacity:1;stop-color:#ffffff" /><stop
         id="stop386"
         offset="1"
         style="stop-opacity:0;stop-color:#ffffff" /></linearGradient><mask
       id="mask390"
       height="1"
       width="1"
       y="0"
       x="0"
       maskUnits="userSpaceOnUse"><g
         id="g400"><g
           id="g398"
           clip-path="url(#clipPath376)"><g
             id="g396"><g
               id="g394"><path
                 id="path392"
                 style="fill:url(#linearGradient388);stroke:none"
                 d="M -32768,32767 H 32767 V -32768 H -32768 Z" /></g></g></g></g></mask><linearGradient
       id="linearGradient412"
       spreadMethod="pad"
       gradientTransform="matrix(-50.514767,246.57516,-246.57516,-50.514767,441.28,393.24634)"
       gradientUnits="userSpaceOnUse"
       y2="0"
       x2="1"
       y1="0"
       x1="0"><stop
         id="stop402"
         offset="0"
         style="stop-opacity:1;stop-color:#e5e5e5" /><stop
         id="stop404"
         offset="0.32349269"
         style="stop-opacity:1;stop-color:#ffffef" /><stop
         id="stop406"
         offset="0.5"
         style="stop-opacity:1;stop-color:#ffffef" /><stop
         id="stop408"
         offset="0.80895687"
         style="stop-opacity:1;stop-color:#ffffef" /><stop
         id="stop410"
         offset="1"
         style="stop-opacity:1;stop-color:#e3e3e3" /></linearGradient><clipPath
       id="clipPath438"
       clipPathUnits="userSpaceOnUse"><path
         id="path436"
         d="m 313.899,469.427 c -0.926,-1.035 -10.194,-12.186 7.869,-25.507 v 0 c 19.567,-14.431 170.925,-100.086 70.901,-158.59 v 0 c 0,0 33.728,14.327 43.523,47.162 v 0 l 0.088,0.048 c 0,0 12.474,35.901 -18.86,70.98 v 0 c -44.167,49.447 -104.594,62.329 -84.995,73.057 v 0 c 0,0 -9.249,-1.065 -18.526,-7.15" /></clipPath><clipPath
       id="clipPath446"
       clipPathUnits="userSpaceOnUse"><path
         id="path444"
         d="M -32768,32767 H 32767 V -32768 H -32768 Z" /></clipPath><linearGradient
       id="linearGradient454"
       spreadMethod="pad"
       gradientTransform="matrix(-152.12062,50.66946,-50.66946,-152.12062,443.43182,354.01193)"
       gradientUnits="userSpaceOnUse"
       y2="0"
       x2="1"
       y1="0"
       x1="0"><stop
         id="stop448"
         offset="0"
         style="stop-opacity:0;stop-color:#ffffff" /><stop
         id="stop450"
         offset="0.68093451"
         style="stop-opacity:1;stop-color:#ffffff" /><stop
         id="stop452"
         offset="1"
         style="stop-opacity:1;stop-color:#ffffff" /></linearGradient><mask
       id="mask456"
       height="1"
       width="1"
       y="0"
       x="0"
       maskUnits="userSpaceOnUse"><g
         id="g466"><g
           id="g464"
           clip-path="url(#clipPath446)"><g
             id="g462"><g
               id="g460"><path
                 id="path458"
                 style="fill:url(#linearGradient454);stroke:none"
                 d="M -32768,32767 H 32767 V -32768 H -32768 Z" /></g></g></g></g></mask><linearGradient
       id="linearGradient478"
       spreadMethod="pad"
       gradientTransform="matrix(-152.12062,50.66946,-50.66946,-152.12062,443.43182,354.01193)"
       gradientUnits="userSpaceOnUse"
       y2="0"
       x2="1"
       y1="0"
       x1="0"><stop
         id="stop472"
         offset="0"
         style="stop-opacity:1;stop-color:#ffffff" /><stop
         id="stop474"
         offset="0.68093451"
         style="stop-opacity:1;stop-color:#dadada" /><stop
         id="stop476"
         offset="1"
         style="stop-opacity:1;stop-color:#dadada" /></linearGradient><clipPath
       id="clipPath488"
       clipPathUnits="userSpaceOnUse"><path
         id="path486"
         d="M 0,800 H 800 V 0 H 0 Z" /></clipPath><clipPath
       id="clipPath496"
       clipPathUnits="userSpaceOnUse"><path
         id="path494"
         d="M 297.941,476.577 H 427.503 V 285.33 H 297.941 Z" /></clipPath><clipPath
       id="clipPath500"
       clipPathUnits="userSpaceOnUse"><path
         id="path498"
         d="m 332.4,476.577 c 0,0 -9.249,-1.064 -18.526,-7.15 -0.926,-1.034 -10.195,-12.186 7.868,-25.507 19.568,-14.431 173.251,-97.183 70.902,-158.59 54.126,77.966 -94.038,118.411 -94.703,164.282 0.909,24.268 34.459,26.965 34.459,26.965" /></clipPath><clipPath
       id="clipPath504"
       clipPathUnits="userSpaceOnUse"><path
         id="path502"
         d="M -32768,32767 H 32767 V -32768 H -32768 Z" /></clipPath><linearGradient
       id="linearGradient516"
       spreadMethod="pad"
       gradientTransform="matrix(-154.41881,51.434956,-51.434956,-154.41881,437.29639,356.04706)"
       gradientUnits="userSpaceOnUse"
       y2="0"
       x2="1"
       y1="0"
       x1="0"><stop
         id="stop506"
         offset="0"
         style="stop-opacity:0;stop-color:#ffffff" /><stop
         id="stop508"
         offset="0.20990323"
         style="stop-opacity:1;stop-color:#ffffff" /><stop
         id="stop510"
         offset="0.5"
         style="stop-opacity:1;stop-color:#ffffff" /><stop
         id="stop512"
         offset="0.74067063"
         style="stop-opacity:1;stop-color:#ffffff" /><stop
         id="stop514"
         offset="1"
         style="stop-opacity:0;stop-color:#ffffff" /></linearGradient><mask
       id="mask518"
       height="1"
       width="1"
       y="0"
       x="0"
       maskUnits="userSpaceOnUse"><g
         id="g528"><g
           id="g526"
           clip-path="url(#clipPath504)"><g
             id="g524"><g
               id="g522"><path
                 id="path520"
                 style="fill:url(#linearGradient516);stroke:none"
                 d="M -32768,32767 H 32767 V -32768 H -32768 Z" /></g></g></g></g></mask><linearGradient
       id="linearGradient540"
       spreadMethod="pad"
       gradientTransform="matrix(-154.41881,51.434956,-51.434956,-154.41881,437.29639,356.04706)"
       gradientUnits="userSpaceOnUse"
       y2="0"
       x2="1"
       y1="0"
       x1="0"><stop
         id="stop530"
         offset="0"
         style="stop-opacity:1;stop-color:#fffce5" /><stop
         id="stop532"
         offset="0.20990323"
         style="stop-opacity:1;stop-color:#ffffff" /><stop
         id="stop534"
         offset="0.5"
         style="stop-opacity:1;stop-color:#ffffff" /><stop
         id="stop536"
         offset="0.74067063"
         style="stop-opacity:1;stop-color:#ffffff" /><stop
         id="stop538"
         offset="1"
         style="stop-opacity:1;stop-color:#e4e4e4" /></linearGradient></defs><g
     transform="matrix(1.3333333,0,0,-1.3333333,-397.22064,838.43598)"
     id="g10"><g
   id="g14"><g
     clip-path="url(#clipPath20)"
     id="g16"><g
       id="g22"><g
         id="g24"><path
           id="path36"
           style="fill:url(#linearGradient34);stroke:none"
           d="m 330.109,476.274 c 0,0 -11.444,-11.96 14.092,-22.941 v 0 c 25.538,-10.981 61.247,-37.288 61.247,-37.288 v 0 c 0,0 51.573,-13.222 56.398,-12.85 v 0 c 4.825,0.372 25.98,-2.222 37.704,16.634 v 0 c 11.726,18.857 -10.398,38.598 -10.398,38.598 v 0 c 0,0 -19.409,-9.823 -111.792,12.003 v 0 c -16.236,3.836 -28.161,6.453 -38.795,6.453 v 0 c -2.894,0 -5.692,-0.193 -8.456,-0.609" /></g></g></g></g><g
   id="g38"><g
     clip-path="url(#clipPath44)"
     id="g40"><g
       id="g46"><g
         id="g48" /><g
         mask="url(#mask62)"
         id="g74"><g
           id="g76"><path
             id="path86"
             style="fill:url(#linearGradient84);stroke:none"
             d="m 330.109,476.274 c 0,0 -11.444,-11.96 14.092,-22.941 v 0 c 25.538,-10.981 61.247,-37.288 61.247,-37.288 v 0 c 0,0 51.573,-13.222 56.398,-12.85 v 0 c 4.825,0.372 25.98,-2.222 37.704,16.634 v 0 c 11.726,18.857 -10.398,38.598 -10.398,38.598 v 0 c 0,0 -19.419,-9.861 -111.792,12.003 v 0 c -16.147,3.822 -28.141,6.451 -38.812,6.451 v 0 c -2.892,0 -5.685,-0.193 -8.439,-0.607" /></g></g></g></g></g><g
   id="g88"><g
     clip-path="url(#clipPath94)"
     id="g90"><g
       id="g96"><g
         id="g98" /><g
         id="g156"><g
           style="opacity:0.429993"
           id="g154"
           clip-path="url(#clipPath102)"><g
             id="g152"><g
               id="g150"
               clip-path="url(#clipPath106)"><g
                 id="g148"><g
                   id="g140" /><g
                   id="g146"
                   mask="url(#mask120)"><g
                     id="g144"><path
                       id="path142"
                       style="fill:url(#linearGradient138);stroke:none"
                       d="m 431.555,429.615 c 54.784,-13.796 53.148,-0.881 53.148,-0.881 0,0 6.242,9.866 12.201,20.478 4.975,-7.505 9.36,-18.585 2.647,-29.382 -11.725,-18.856 -32.88,-16.263 -37.705,-16.635 -4.825,-0.372 -56.398,12.849 -56.398,12.849 0,0 -28.548,21.026 -52.847,33.329 19.794,-4.159 47.782,-11.908 78.954,-19.758" /></g></g></g></g></g></g></g></g></g></g><g
   id="g158"><g
     clip-path="url(#clipPath164)"
     id="g160"><g
       id="g166"><g
         id="g168"><path
           id="path178"
           style="fill:url(#linearGradient176);stroke:none"
           d="m 380.767,513.335 c 94.451,-70.098 118.918,-110.913 80.096,-110.104 v 0 c 0,0 54.43,-13.385 62.882,38.724 v 0 c 4.981,30.707 -15.184,49.137 -40.377,69.969 v 0 c 0,0 -87.268,62.302 -146.271,116.902 v 0 c 0,0 -44.408,-50.123 43.67,-115.491" /></g></g></g></g><g
   id="g180"><g
     clip-path="url(#clipPath186)"
     id="g182"><g
       id="g188"><g
         id="g190"><path
           id="path200"
           style="fill:url(#linearGradient198);stroke:none"
           d="m 358.139,271.098 c -0.55,-0.406 -0.12,-1.269 0.529,-1.057 v 0 c 8.736,2.85 22.707,9.027 34.001,15.289 v 0 c 34.371,19.059 7.87,58.528 -9.409,77.375 v 0 c 0,0 29.865,-51.046 -25.121,-91.607" /></g></g></g></g><g
   id="g202"><g
     clip-path="url(#clipPath208)"
     id="g204"><g
       id="g210"><g
         id="g212"><path
           id="path222"
           style="fill:url(#linearGradient220);stroke:none"
           d="m 358.139,271.098 c -0.55,-0.406 -0.12,-1.269 0.529,-1.057 v 0 c 8.736,2.85 29.24,10.625 37.892,18.755 v 0 c 28.641,26.912 3.979,55.062 -13.3,73.909 v 0 c 0,0 29.865,-51.046 -25.121,-91.607" /></g></g></g></g><g
   id="g224"><g
     clip-path="url(#clipPath230)"
     id="g226"><g
       id="g232"><g
         id="g234"><path
           id="path244"
           style="fill:url(#linearGradient242);stroke:none"
           d="m 297.967,449.612 c -3.253,-44.138 148.829,-86.316 94.702,-164.282 v 0 c 0,0 33.728,14.327 43.523,47.162 v 0 l 0.088,0.048 c 0,0 12.474,35.9 -18.86,70.98 v 0 c -44.167,49.447 -104.594,62.328 -84.995,73.057 v 0 c 0,0 -32.586,-3.018 -34.458,-26.965" /></g></g></g></g><g
   id="g246"><g
     clip-path="url(#clipPath252)"
     id="g248"><g
       id="g254"><g
         id="g256" /><g
         mask="url(#mask274)"
         id="g286"><g
           id="g288"><path
             id="path302"
             style="fill:url(#linearGradient300);stroke:none"
             d="m 297.94,449.612 c 0.667,-45.871 148.83,-86.316 94.704,-164.282 v 0 c 0,0 33.726,14.327 43.523,47.162 v 0 l 0.087,0.048 c 0,0 12.473,35.9 -18.86,70.98 v 0 c -44.168,49.447 -104.595,62.328 -84.994,73.057 v 0 c 0,0 -33.551,-2.696 -34.46,-26.965" /></g></g></g></g></g><g
   id="g304"><g
     clip-path="url(#clipPath310)"
     id="g306"><g
       id="g312"><g
         id="g314" /><g
         mask="url(#mask328)"
         id="g340"><g
           id="g342"><path
             id="path352"
             style="fill:url(#linearGradient350);stroke:none"
             d="M 430.905,519.643 C 511.261,462.3 523.279,417.625 496.16,405.097 v 0 c 12.348,4.616 24.032,14.948 27.585,36.858 v 0 c 4.981,30.707 -14.134,48.217 -40.377,69.969 v 0 c 0,0 -94.078,67.14 -146.27,116.902 v 0 c 0,0 -7.929,-36.586 93.807,-109.183 m 39.872,-117.786 c 10.385,-0.884 18.979,0.282 25.383,3.24 v 0 c -9.094,-3.4 -18.55,-3.699 -25.383,-3.24 m 0,0 c -3.145,0.268 -6.45,0.723 -9.914,1.374 v 0 c 0,0 3.96,-0.975 9.914,-1.374" /></g></g></g></g></g><g
   id="g354"><g
     clip-path="url(#clipPath360)"
     id="g356"><g
       id="g362"><g
         id="g364" /><g
         id="g430"><g
           style="opacity:0.25"
           id="g428"
           clip-path="url(#clipPath368)"><g
             id="g426"><g
               id="g424"
               clip-path="url(#clipPath372)"><g
                 id="g422"><g
                   id="g414" /><g
                   id="g420"
                   mask="url(#mask390)"><g
                     id="g418"><path
                       id="path416"
                       style="fill:url(#linearGradient412);stroke:none"
                       d="m 337.097,628.827 h 0.001 c -0.001,-0.002 -7.926,-36.588 93.806,-109.184 80.373,-57.354 92.375,-102.035 65.237,-114.552 -8.902,-3.322 -18.141,-3.677 -24.932,-3.26 -3.274,0.262 -6.721,0.719 -10.345,1.4 38.822,-0.809 14.354,40.007 -80.097,110.104 -88.078,65.368 -43.67,115.492 -43.67,115.492" /></g></g></g></g></g></g></g></g></g></g><g
   id="g432"><g
     clip-path="url(#clipPath438)"
     id="g434"><g
       id="g440"><g
         id="g442" /><g
         mask="url(#mask456)"
         id="g468"><g
           id="g470"><path
             id="path480"
             style="fill:url(#linearGradient478);stroke:none"
             d="m 313.899,469.427 c -0.926,-1.035 -10.194,-12.186 7.869,-25.507 v 0 c 19.567,-14.431 170.925,-100.086 70.901,-158.59 v 0 c 0,0 33.728,14.327 43.523,47.162 v 0 l 0.088,0.048 c 0,0 12.474,35.901 -18.86,70.98 v 0 c -44.167,49.447 -104.594,62.329 -84.995,73.057 v 0 c 0,0 -9.249,-1.065 -18.526,-7.15" /></g></g></g></g></g><g
   id="g482"><g
     clip-path="url(#clipPath488)"
     id="g484"><g
       id="g490"><g
         id="g492" /><g
         id="g558"><g
           style="opacity:0.169998"
           id="g556"
           clip-path="url(#clipPath496)"><g
             id="g554"><g
               id="g552"
               clip-path="url(#clipPath500)"><g
                 id="g550"><g
                   id="g542" /><g
                   id="g548"
                   mask="url(#mask518)"><g
                     id="g546"><path
                       id="path544"
                       style="fill:url(#linearGradient540);stroke:none"
                       d="m 332.4,476.577 c 0,0 -9.249,-1.064 -18.526,-7.15 -0.926,-1.034 -10.195,-12.186 7.868,-25.507 19.568,-14.431 173.251,-97.183 70.902,-158.59 54.126,77.966 -94.038,118.411 -94.703,164.282 0.909,24.268 34.459,26.965 34.459,26.965" /></g></g></g></g></g></g></g></g></g></g>

</g></svg>
